<?xml version="1.0" standalone="no"?>
<!DOCTYPE svg PUBLIC "-//W3C//DTD SVG 20010904//EN"
 "http://www.w3.org/TR/2001/REC-SVG-20010904/DTD/svg10.dtd">
<svg version="1.0" xmlns="http://www.w3.org/2000/svg"
 width="500.000000pt" height="500.000000pt" viewBox="0 0 500.000000 500.000000"
 preserveAspectRatio="xMidYMid meet">

<g transform="translate(0.000000,500.000000) scale(0.100000,-0.100000)"
fill="#000000" stroke="none">
<path d="M1516 4541 c5 -4 56 -14 114 -20 58 -7 155 -23 215 -36 l110 -24 -90
6 c-102 6 -258 -9 -325 -32 -44 -14 -43 -15 75 -11 129 4 624 -18 665 -30 14
-4 21 -3 17 2 -21 22 -392 127 -511 143 -93 13 -284 15 -270 2z"/>
<path d="M3340 4075 c0 -30 -5 -65 -11 -79 -14 -29 -23 -32 -301 -103 -104
-27 -188 -51 -188 -55 0 -16 282 -335 323 -365 17 -13 41 -23 53 -23 80 0 47
158 -71 342 -56 85 -53 83 130 -87 459 -428 513 -468 589 -439 43 16 1 145
-88 275 -31 45 -51 79 -44 76 7 -2 84 -48 171 -100 210 -128 304 -162 337
-122 20 24 -2 63 -97 172 -111 129 -170 179 -249 213 -44 18 -60 29 -50 33 23
9 38 55 31 89 -9 41 -27 30 -41 -26 -7 -26 -15 -50 -19 -54 -3 -3 -20 0 -38 7
-18 7 -117 40 -222 73 -104 32 -196 61 -203 63 -9 3 -7 10 8 25 22 22 27 87
10 121 -19 34 -30 20 -30 -36z"/>
<path d="M2190 4017 c0 -2 25 -21 56 -42 61 -40 144 -120 144 -138 0 -6 -10
-1 -22 10 -40 36 -91 56 -159 61 -71 5 -105 -11 -47 -23 87 -16 178 -57 212
-95 l35 -39 7 45 c11 78 -33 147 -125 193 -36 19 -101 37 -101 28z"/>
<path d="M2495 3504 c-109 -72 -111 -93 -15 -158 82 -56 111 -57 137 -2 22 47
10 98 -34 147 -19 21 -38 39 -42 39 -3 0 -24 -12 -46 -26z m96 -96 c10 -24 9
-35 -4 -64 -9 -19 -22 -34 -29 -33 -7 1 -35 25 -61 54 l-48 53 43 31 42 31 22
-21 c12 -12 28 -34 35 -51z"/>
<path d="M2170 3057 c-79 -20 -130 -87 -130 -171 0 -121 87 -259 298 -473 83
-84 156 -153 162 -153 6 0 79 69 162 153 223 226 305 362 296 489 -10 133
-134 197 -262 134 -49 -24 -158 -125 -184 -171 -11 -20 -11 -19 -29 5 -35 50
-119 132 -158 155 -53 32 -112 44 -155 32z"/>
<path d="M2431 2111 c-25 -24 -31 -37 -31 -71 0 -91 106 -135 171 -71 63 64
19 171 -71 171 -28 0 -46 -8 -69 -29z"/>
<path d="M1133 1733 c-39 -15 5 -149 91 -274 31 -45 51 -79 44 -76 -7 2 -84
48 -171 100 -210 128 -304 162 -337 122 -20 -24 2 -63 96 -172 109 -126 179
-186 252 -214 56 -22 58 -24 41 -38 -26 -22 -34 -71 -15 -96 16 -22 17 -22 36
53 12 46 24 51 68 28 15 -8 111 -40 212 -71 102 -31 191 -58 198 -60 9 -3 7
-10 -8 -25 -22 -22 -27 -87 -10 -121 19 -34 30 -20 30 36 0 30 5 65 11 79 14
29 23 32 301 103 104 27 188 51 188 55 0 16 -282 335 -323 365 -17 13 -41 23
-53 23 -80 0 -47 -158 71 -342 56 -85 53 -83 -130 87 -410 383 -488 446 -549
444 -17 0 -37 -3 -43 -6z"/>
<path d="M2400 1680 c-45 -45 -34 -122 24 -179 l35 -34 43 28 c111 72 114 94
20 158 -77 52 -93 56 -122 27z m60 2 c0 -5 21 -29 46 -54 l45 -45 -42 -32 -43
-31 -22 21 c-39 37 -50 75 -31 115 15 30 47 48 47 26z"/>
<path d="M2584 1203 c-13 -85 50 -166 161 -209 67 -25 73 -12 13 28 -60 39
-148 123 -148 141 0 6 10 1 23 -10 41 -38 91 -56 165 -61 91 -6 95 10 6 32
-90 23 -148 52 -183 92 l-30 33 -7 -46z"/>
<path d="M2703 604 c21 -22 392 -127 511 -143 93 -13 284 -15 270 -2 -5 4 -56
14 -114 20 -58 7 -154 23 -215 36 l-110 23 95 -5 c104 -6 250 9 320 32 44 14
43 15 -75 11 -129 -4 -624 18 -665 30 -14 4 -21 3 -17 -2z"/>
</g>
</svg>
